<?xml version="1.0" encoding="utf-8"?>
<!-- Generator: Adobe Illustrator 17.0.0, SVG Export Plug-In . SVG Version: 6.00 Build 0)  -->
<!DOCTYPE svg PUBLIC "-//W3C//DTD SVG 1.1//EN" "http://www.w3.org/Graphics/SVG/1.1/DTD/svg11.dtd">
<svg version="1.1" id="Layer_1" xmlns="http://www.w3.org/2000/svg" xmlns:xlink="http://www.w3.org/1999/xlink" x="0px" y="0px"
	 width="125px" height="39px" viewBox="0 0 830.508 261.358" enable-background="new 0 0 830.508 261.358"
	 xml:space="preserve">
<path id="XMLID_6_" fill="#231F20" d="M830.508,0.526c0,0.372-0.434,0.744-0.868,1.116C776.202,18.759,720.158,29.921,664.549,40.34
	c-56.044,10.046-112.088,18.604-168.566,26.046C422.127,76.059,348.27,84.245,273.98,90.571c2.172,7.441,4.344,15.255,5.648,23.069
	c8.254,49.859,2.172,99.347-10.861,146.974c-0.435,0.744-0.869,0.744-1.303,0.744c-0.435,0-0.869-0.372-0.869-1.116
	c4.345-23.813,6.517-48.371,6.951-72.557c0-24.186-1.303-48.371-6.951-71.813c-2.172-8.187-4.779-16.372-7.82-24.186
	c-34.321,2.977-69.077,5.209-103.833,7.069c-28.239,1.488-56.913,2.977-86.021,2.604c-14.337,0-28.673-0.372-44.314-2.604
	c-3.91-0.744-7.82-1.116-13.033-3.721c-4.779-2.604-8.689-6.697-10.427-11.535c-1.738-4.837-1.303-9.674,0-13.395
	c1.303-4.093,3.041-7.442,5.213-10.419c9.124-12.278,20.854-20.465,33.453-27.906c12.599-7.441,25.632-13.395,39.969-17.86
	c27.805-8.93,58.65-12.65,89.062-8.558c29.542,4.465,59.519,16.744,78.635,37.953c9.992,10.79,16.943,23.069,22.157,36.092
	c75.159-5.209,150.319-12.65,225.044-21.209c56.479-6.325,112.522-13.767,168.567-22.697C719.289,26.2,775.333,16.153,829.205,0.154
	C829.64-0.218,830.074,0.154,830.508,0.526z M253.995,80.524c-4.779-10.418-11.295-20.093-19.55-28.278
	c-16.509-17.86-42.576-27.162-68.643-30.511c-26.501-3.349-53.872,0-79.069,8.186c-12.599,4.093-24.764,9.302-36.059,15.628
	c-11.296,6.325-21.723,14.139-28.239,22.697c-3.041,4.093-4.345,8.558-3.476,10.418c0,1.116,1.303,2.232,2.606,2.977
	c0.435,0.744,3.91,1.488,6.951,1.86c12.599,2.232,26.936,2.977,40.838,3.349c28.239,0.745,56.478,0,85.152-1.116
	C187.525,84.245,220.977,82.757,253.995,80.524z"/>
<path id="XMLID_9_" fill="#231F20" d="M422.554,229.358c0.435,0.372,0,0.744-0.435,0.744c-8.254,3.35-17.378,6.698-27.805,5.954
	c-4.779-0.372-10.427-2.604-13.902-5.954c-3.91-2.977-6.517-7.069-8.689-10.79l-0.434-0.372c-0.435,0.372-0.869,0.744-1.738,1.116
	c-3.476,2.232-6.951,4.465-10.861,7.069c-7.386,4.466-14.771,9.675-24.764,13.396c-2.607,0.744-5.648,1.488-9.124,1.86
	c-3.91,0-9.123-1.116-12.599-4.465c-3.476-2.977-4.345-6.325-5.214-8.931c-0.869-3.349-0.434-6.697,0.435-9.302
	c3.91-11.534,13.034-17.488,21.723-21.953c9.123-4.465,19.116-7.441,29.542-7.441c5.213-0.372,10.861,0.372,16.075,2.604
	c5.213,1.86,9.123,6.325,9.558,10.418v0.372c0,0.372-0.435,0.744-0.869,0.744c-0.434,0-0.434,0-0.869-0.372
	c-6.083-5.953-14.337-4.465-21.722-2.604c-7.82,2.232-15.206,5.582-21.288,10.047c-6.517,3.721-12.165,8.93-13.902,12.65
	c-0.435,1.116-0.869,1.86-0.869,2.604c0,1.116,0.435,1.86,0,1.488c-0.435,0-1.303,0,0,0c0.869,0.372,2.172,0,3.91-0.372
	c7.386-1.488,15.206-5.581,23.026-9.674c3.91-2.232,7.82-4.093,12.165-6.325c2.172-0.744,3.91-1.86,7.82-2.977
	c0.869,0,1.738,0,2.607,0c1.303,0.372,3.476,1.116,4.344,2.232c0.869,1.86,0.869,1.86,0.869,1.86l0.434,0.744l0.435,2.604
	c2.607,7.069,6.951,13.022,15.206,14.512c7.82,1.86,17.378,0,26.066-2.233C422.12,228.614,422.554,228.614,422.554,229.358z
	 M369.986,215.592"/>
<path id="XMLID_12_" fill="#231F20" d="M430.371,175.034c-7.82-0.744-10.861-1.488-12.599-2.232
	c-2.172-1.116,1.303-1.86,2.606-2.604s2.607-1.488,4.345-2.232c1.738-1.116,3.041-1.86,5.648-2.604c0.869-0.372,1.737-0.372,2.606,0
	c2.172,0.744,3.91,1.488,5.648,2.604c1.738,0.744,3.041,1.488,4.344,2.232c0.869,0.744,4.779,1.488,2.607,2.604
	c-1.738,0.744-4.779,1.488-12.599,2.232C432.108,175.034,431.239,175.034,430.371,175.034z M467.298,234.94
	c0,0.372-0.435,0.744-0.435,0.744c-5.647,2.977-11.73,5.209-19.115,5.953c-3.91,0-8.255-0.372-12.165-2.232
	c-4.344-2.232-7.385-5.581-8.688-8.93c-3.476-6.326-5.648-12.651-3.91-18.232c1.738-5.954,4.344-10.791,9.558-15.628
	c0.435-0.744,1.304-0.744,1.738-0.372l0.435,0.372c5.213,5.581,6.083,11.163,7.386,16.372c0.869,4.837-1.303,9.674-0.869,13.395
	c0.435,3.349,1.738,5.582,6.951,7.07s11.73,1.116,17.813,0.744C466.43,234.196,467.298,234.568,467.298,234.94z"/>
<path id="XMLID_15_" fill="#231F20" d="M561.134,105.082c-0.869,6.325-1.737,12.279-3.476,18.977
	c-1.737,6.325-4.345,12.651-6.951,18.604c-11.73,24.186-31.715,43.906-54.741,59.161c-0.435,0.372-0.869,0-1.303-0.372
	c-0.435,0-0.435-0.372,0-0.744c16.943-20.093,31.715-40.929,39.535-63.254c4.345-10.791,5.647-22.325,7.386-34.232
	c0.868-5.581,1.303-11.534,0-15.255c-0.435-1.861-0.869-2.605-1.304-2.978c-0.869-0.744-2.606-1.116-4.779-1.488
	c-6.082,0.372-14.771,5.582-20.854,11.907c-6.951,6.697-12.599,14.139-16.943,22.325c-9.558,16.371-15.206,34.231-16.509,52.464
	c-0.434,9.302-0.434,18.604,1.304,27.534c1.303,8.93,4.344,17.86,10.427,24.93c6.082,7.441,15.206,12.651,25.632,14.884
	c10.427,2.232,21.288,1.86,32.149,1.488c0.869-0.372,1.304,0,1.304,0.744c0,0.372-0.435,0.744-0.869,0.744
	c-10.861,1.488-22.157,2.232-33.452,0.372c-11.296-1.488-22.592-6.697-29.978-14.512c-7.386-8.186-11.73-17.487-13.902-27.162
	c-2.607-9.674-3.476-19.349-3.042-29.395c0-19.349,4.779-39.069,13.902-57.301c4.345-8.931,9.993-17.86,17.378-25.675
	c3.91-4.093,7.821-8.186,13.034-11.534c5.214-3.349,11.296-6.697,19.551-7.441h0.435h0.434c4.345,0,9.993,0.372,15.641,3.721
	c5.213,2.977,8.255,8.186,9.558,11.906C562.872,92.059,562.003,98.757,561.134,105.082z"/>
<path id="XMLID_17_" fill="#231F20" d="M647.585,235.312c0,0.372,0,0.744-0.435,0.744c-3.91,1.86-7.82,3.349-12.599,4.465
	c-4.345,1.116-9.124,1.86-14.337,1.116c-5.647-0.744-10.861-4.837-13.468-9.302c-2.173-4.466-2.606-8.931-3.041-12.651l-0.435-2.977
	c-0.435,0.372-0.869,0.744-1.738,0.744c-10.427,2.977-20.854,1.488-29.977-2.604l-3.476-1.488c-2.606-0.744-3.476-3.349-2.606-5.581
	c0.868-0.744,1.303-1.489,2.606-1.861c0.435-0.372,1.304-1.116,2.172-1.86c0.869-0.372,1.738-1.116,2.607-1.86
	c0.868-0.372,1.737-1.116,2.172-1.86s1.304-1.116,1.304-2.604c0-0.372,0.434-0.744,0.868-0.744s0.435,0,0.435,0h0.435
	c1.304,0.744,2.172,2.604,2.606,3.721c0.435,0.744,0.435,1.86,0.435,2.604c5.648-0.744,10.861-1.116,15.206-1.86
	c1.737-0.372,3.476-0.744,4.778-1.116h0.435c1.304-0.372,0.869,0,1.304-0.372c1.737-0.372,3.041-0.744,5.213-0.744
	c2.607,0,6.518,1.488,7.82,3.349c1.738,1.86,2.173,2.977,2.173,4.093c0.868,3.722,0.434,5.21,0,7.442l-0.435,5.581
	c-0.869,6.697-0.869,12.279,5.213,14.884c6.082,2.232,15.206,1.488,23.895,0C647.151,234.568,647.585,234.94,647.585,235.312z
	 M602.402,210.383c0,0,0,0.372,0.435,0.744C602.402,210.383,602.402,210.011,602.402,210.383z"/>
<path id="XMLID_20_" fill="#231F20" d="M750.983,237.917c0.435,0.372,0.435,1.116,0,1.116c-0.435,0.372-0.869,0.372-1.304,0.372
	c-6.951-5.209-13.033-11.163-18.246-17.488c-2.607,2.232-4.779,4.093-7.386,5.953c-12.165,8.187-27.37,15.256-44.748,14.14
	c-2.173-0.372-4.345-0.372-6.083-1.116c-1.303,0-2.606-0.372-3.476-0.744l-2.606-0.744c-3.91-1.488-8.255-3.721-11.296-6.697
	c-3.041-3.35-4.778-7.814-4.778-11.907c0.434-4.093,1.737-7.813,4.345-10.79c4.778-5.954,11.729-9.675,19.115-11.907
	c6.951-1.86,14.771-2.232,21.723-1.488c0.435,0,0.869,0.372,0.869,1.116c0,0.372-0.435,0.372-0.869,0.744
	c-6.951,0.372-13.468,1.86-19.551,4.837c-5.647,2.604-10.427,6.326-13.033,10.791c-2.172,4.465-1.303,8.93,1.738,11.162
	c1.303,1.488,3.476,2.232,6.082,2.977l2.606,0.372c0.869,0.372,1.304,0.372,1.738,0.372c1.303,0,3.041,0,4.344,0
	c11.296,0,22.592-5.581,31.715-13.022c3.041-2.232,6.083-5.209,8.689-8.186c-1.738-2.233-3.041-4.838-4.779-7.442
	c-8.688-14.511-15.206-29.767-20.419-45.395c-5.213-15.627-8.689-31.627-9.992-48.371c-0.869-8.186-0.869-16.371,0-24.93
	c0.869-4.093,1.737-8.558,3.476-13.022c0.869-2.232,2.172-4.465,4.345-6.698c2.172-2.232,5.213-4.465,9.558-5.209h0.435
	c5.213-0.372,10.427,1.116,14.337,2.977c3.909,2.232,6.951,4.466,9.558,7.07c5.213,5.209,9.123,11.162,12.164,16.743
	c6.518,11.535,10.861,23.813,13.902,36.093c5.648,24.558,7.386,50.231-2.606,75.533c-0.869,2.977-2.606,6.697-4.345,9.302
	c-1.737,3.35-3.91,6.326-6.082,8.931c-2.172,2.232-4.345,4.465-6.517,6.697C738.818,226.382,744.466,232.708,750.983,237.917z
	 M723.612,204.429c0.435,0,0.435-0.372,0.435-0.372c1.737-2.232,3.476-4.465,4.344-6.697c1.738-2.977,2.607-4.837,3.91-7.813
	c3.476-10.047,6.083-21.581,6.518-32.744c0.434-11.534,0-23.441-2.173-34.604c-2.172-11.535-5.647-23.069-10.861-33.487
	c-2.606-5.21-5.647-10.047-9.558-14.14c-3.476-4.093-7.82-6.697-11.73-6.697c-0.868,0.372-2.606,1.86-3.91,4.837
	c-1.737,2.977-2.606,6.697-3.475,10.418c-1.304,7.442-1.304,15.256-1.304,23.069c0.869,15.628,3.476,31.628,7.386,46.883
	c3.91,15.628,9.558,30.884,16.943,45.395C721.44,200.708,722.309,202.568,723.612,204.429z"/>
<path id="XMLID_28_" fill="#231F20" d="M790.08,233.824c0,2.604-3.475,3.349-5.647,4.837c-2.172,1.116-4.778,1.86-6.951,2.604
	c-2.606,0.372-6.082-4.465-5.213-5.953c0.868-1.488,1.303-2.977,1.737-4.093c0.435-1.489-0.869-3.35,0.869-3.722
	c0.869-0.372,1.737-0.744,3.041-1.116c1.304,0,3.041-0.372,5.647-0.744c0.869,0,1.304,0,1.738,0.372
	c2.172,1.116,3.476,2.232,4.345,4.093C790.08,231.22,790.515,232.708,790.08,233.824z"/>
</svg>
